<?xml version="1.0" encoding="UTF-8" standalone="no"?>
<svg
   xmlns:dc="http://purl.org/dc/elements/1.1/"
   xmlns:cc="http://creativecommons.org/ns#"
   xmlns:rdf="http://www.w3.org/1999/02/22-rdf-syntax-ns#"
   xmlns:svg="http://www.w3.org/2000/svg"
   xmlns="http://www.w3.org/2000/svg"
   viewBox="0 0 256 256"
   height="256"
   width="256"
   id="svg10"
   version="1.1">
  <metadata
     id="metadata16">
    <rdf:RDF>
      <cc:Work
         rdf:about="">
        <dc:format>image/svg+xml</dc:format>
        <dc:type
           rdf:resource="http://purl.org/dc/dcmitype/StillImage" />
        <dc:title></dc:title>
      </cc:Work>
    </rdf:RDF>
  </metadata>
  <defs
     id="defs14" />
  <g
     id="flowRoot3724"
     style="font-style:normal;font-weight:normal;font-size:40px;line-height:1.25;font-family:sans-serif;letter-spacing:0px;word-spacing:0px;fill:#000000;fill-opacity:1;stroke:none"
     transform="translate(23.328125,30.06336)"
     aria-label="PRoot">
    <path
       id="path815"
       style="font-style:normal;font-variant:normal;font-weight:normal;font-stretch:normal;font-size:64px;font-family:serif;-inkscape-font-specification:serif;fill:#ffa50f;fill-opacity:0.94117647"
       d="m 37.140625,98.84289 v 12.34375 q 0,4 0.875,4.96875 1.1875,1.375 3.59375,1.375 h 1.625 v 1.15625 h -18.15625 v -1.15625 h 1.59375 q 2.6875,0 3.84375,-1.75 0.625,-0.96875 0.625,-4.59375 v -27.375 q 0,-4 -0.84375,-4.96875 -1.21875,-1.375 -3.625,-1.375 h -1.59375 v -1.15625 h 15.53125 q 5.6875,0 8.96875,1.1875 3.28125,1.15625 5.53125,3.9375 2.25,2.78125 2.25,6.59375 0,5.1875 -3.4375,8.4375 -3.40625,3.25 -9.65625,3.25 -1.53125,0 -3.3125,-0.21875 -1.78125,-0.21875 -3.8125,-0.65625 z m 0,-1.78125 q 1.65625,0.3125 2.9375,0.46875 1.28125,0.15625 2.1875,0.15625 3.25,0 5.59375,-2.5 2.375,-2.53125 2.375,-6.53125 0,-2.75 -1.125,-5.09375 -1.125,-2.375 -3.1875,-3.53125 -2.0625,-1.1875 -4.6875,-1.1875 -1.59375,0 -4.09375,0.59375 z" />
    <path
       id="path817"
       style="font-style:normal;font-variant:normal;font-weight:normal;font-stretch:normal;font-size:64px;font-family:serif;-inkscape-font-specification:serif;fill:#ffa50f;fill-opacity:0.94117647"
       d="M 102.89063,118.68664 H 91.578125 l -14.34375,-19.8125 q -1.59375,0.0625 -2.59375,0.0625 -0.40625,0 -0.875,0 -0.46875,-0.03125 -0.96875,-0.0625 v 12.3125 q 0,4 0.875,4.96875 1.1875,1.375 3.5625,1.375 h 1.65625 v 1.15625 h -18.15625 v -1.15625 h 1.59375 q 2.6875,0 3.84375,-1.75 0.65625,-0.96875 0.65625,-4.59375 v -27.375 q 0,-4 -0.875,-4.96875 -1.21875,-1.375 -3.625,-1.375 h -1.59375 v -1.15625 h 15.4375 q 6.75,0 9.9375,1 3.21875,0.96875 5.4375,3.625 2.25,2.625 2.25,6.28125 0,3.90625 -2.5625,6.78125 -2.53125,2.875 -7.875,4.0625 l 8.75,12.15625 q 3,4.1875 5.15625,5.5625 2.15625,1.375 5.625005,1.75 z M 72.796875,96.90539 q 0.59375,0 1.03125,0.03125 0.4375,0 0.71875,0 6.0625,0 9.125,-2.625 3.09375,-2.625 3.09375,-6.6875 0,-3.96875 -2.5,-6.4375 -2.46875,-2.5 -6.5625,-2.5 -1.8125,0 -4.90625,0.59375 z" />
    <path
       id="path819"
       style="font-style:normal;font-variant:normal;font-weight:normal;font-stretch:normal;font-size:64px;font-family:serif;-inkscape-font-specification:serif;fill:#ffa50f;fill-opacity:0.94117647"
       d="m 118.39063,89.21789 q 6.5,0 10.43749,4.9375 3.34375,4.21875 3.34375,9.6875 0,3.84375 -1.84375,7.78125 -1.84375,3.9375 -5.09374,5.9375 -3.21875,2 -7.1875,2 -6.46875,0 -10.28125,-5.15625 -3.21875,-4.34375 -3.21875,-9.75 0,-3.9375 1.9375,-7.8125 1.96875,-3.90625 5.15625,-5.75 3.1875,-1.875 6.75,-1.875 z m -0.96875,2.03125 q -1.65625,0 -3.34375,1 -1.65625,0.96875 -2.6875,3.4375 -1.03125,2.46875 -1.03125,6.34375 0,6.25 2.46875,10.78125 2.5,4.53125 6.5625,4.53125 3.03125,0 5,-2.5 1.96875,-2.5 1.96875,-8.59375 0,-7.625 -3.28125,-12 -2.21875,-3 -5.65625,-3 z" />
    <path
       id="path821"
       style="font-style:normal;font-variant:normal;font-weight:normal;font-stretch:normal;font-size:64px;font-family:serif;-inkscape-font-specification:serif;fill:#ffa50f;fill-opacity:0.94117647"
       d="m 150.39062,89.21789 q 6.5,0 10.4375,4.9375 3.34375,4.21875 3.34375,9.6875 0,3.84375 -1.84375,7.78125 -1.84375,3.9375 -5.09375,5.9375 -3.21875,2 -7.1875,2 -6.46875,0 -10.28125,-5.15625 -3.21875,-4.34375 -3.21875,-9.75 0,-3.9375 1.9375,-7.8125 1.96875,-3.90625 5.15625,-5.75 3.1875,-1.875 6.75,-1.875 z m -0.96875,2.03125 q -1.65625,0 -3.34375,1 -1.65625,0.96875 -2.6875,3.4375 -1.03125,2.46875 -1.03125,6.34375 0,6.25 2.46875,10.78125 2.5,4.53125 6.5625,4.53125 3.03125,0 5,-2.5 1.96875,-2.5 1.96875,-8.59375 0,-7.625 -3.28125,-12 -2.21875,-3 -5.65625,-3 z" />
    <path
       id="path823"
       style="font-style:normal;font-variant:normal;font-weight:normal;font-stretch:normal;font-size:64px;font-family:serif;-inkscape-font-specification:serif;fill:#ffa50f;fill-opacity:0.94117647"
       d="m 176.70312,80.65539 v 9.40625 h 6.6875 v 2.1875 h -6.6875 v 18.5625 q 0,2.78125 0.78125,3.75 0.8125,0.96875 2.0625,0.96875 1.03125,0 2,-0.625 0.96875,-0.65625 1.5,-1.90625 h 1.21875 q -1.09375,3.0625 -3.09375,4.625 -2,1.53125 -4.125,1.53125 -1.4375,0 -2.8125,-0.78125 -1.375,-0.8125 -2.03125,-2.28125 -0.65625,-1.5 -0.65625,-4.59375 v -19.25 h -4.53125 v -1.03125 q 1.71875,-0.6875 3.5,-2.3125 1.8125,-1.65625 3.21875,-3.90625 0.71875,-1.1875 2,-4.34375 z" />
  </g>
</svg>
