<?xml version="1.0" encoding="UTF-8" standalone="no"?>
<svg
   xmlns:dc="http://purl.org/dc/elements/1.1/"
   xmlns:cc="http://creativecommons.org/ns#"
   xmlns:rdf="http://www.w3.org/1999/02/22-rdf-syntax-ns#"
   xmlns:svg="http://www.w3.org/2000/svg"
   xmlns="http://www.w3.org/2000/svg"
   id="svg8"
   version="1.1"
   viewBox="0 0 79.374998 66.145835"
   height="250"
   width="300">
  <defs
     id="defs2" />
  <metadata
     id="metadata5">
    <rdf:RDF>
      <cc:Work
         rdf:about="">
        <dc:format>image/svg+xml</dc:format>
        <dc:type
           rdf:resource="http://purl.org/dc/dcmitype/StillImage" />
        <dc:title></dc:title>
      </cc:Work>
    </rdf:RDF>
  </metadata>
  <rect
     style="opacity:1;fill:#ffffff;fill-opacity:1;stroke:#000000;stroke-width:0.26459038;stroke-miterlimit:4;stroke-dasharray:none;stroke-opacity:1"
     id="rect965"
     width="79.110405"
     height="65.881241"
     x="0.13229519"
     y="0.13229729" />
  <g
     transform="translate(0,-230.85414)"
     id="layer1">
    <g
       id="flowRoot3724"
       style="font-style:normal;font-weight:normal;font-size:40px;line-height:1.25;font-family:sans-serif;letter-spacing:0px;word-spacing:0px;fill:#000000;fill-opacity:1;stroke:none"
       transform="matrix(0.26458333,0,0,0.26458333,-4.921367,259.1434)"
       aria-label="PRoot">
      <path
         id="path815"
         style="font-style:normal;font-variant:normal;font-weight:normal;font-stretch:normal;font-size:64px;font-family:serif;-inkscape-font-specification:serif;fill:#ffa50f;fill-opacity:0.94117647"
         d="m 37.140625,98.84289 v 12.34375 q 0,4 0.875,4.96875 1.1875,1.375 3.59375,1.375 h 1.625 v 1.15625 h -18.15625 v -1.15625 h 1.59375 q 2.6875,0 3.84375,-1.75 0.625,-0.96875 0.625,-4.59375 v -27.375 q 0,-4 -0.84375,-4.96875 -1.21875,-1.375 -3.625,-1.375 h -1.59375 v -1.15625 h 15.53125 q 5.6875,0 8.96875,1.1875 3.28125,1.15625 5.53125,3.9375 2.25,2.78125 2.25,6.59375 0,5.1875 -3.4375,8.4375 -3.40625,3.25 -9.65625,3.25 -1.53125,0 -3.3125,-0.21875 -1.78125,-0.21875 -3.8125,-0.65625 z m 0,-1.78125 q 1.65625,0.3125 2.9375,0.46875 1.28125,0.15625 2.1875,0.15625 3.25,0 5.59375,-2.5 2.375,-2.53125 2.375,-6.53125 0,-2.75 -1.125,-5.09375 -1.125,-2.375 -3.1875,-3.53125 -2.0625,-1.1875 -4.6875,-1.1875 -1.59375,0 -4.09375,0.59375 z" />
      <path
         id="path817"
         style="font-style:normal;font-variant:normal;font-weight:normal;font-stretch:normal;font-size:64px;font-family:serif;-inkscape-font-specification:serif;fill:#ffa50f;fill-opacity:0.94117647"
         d="M 102.89063,118.68664 H 91.578125 l -14.34375,-19.8125 q -1.59375,0.0625 -2.59375,0.0625 -0.40625,0 -0.875,0 -0.46875,-0.03125 -0.96875,-0.0625 v 12.3125 q 0,4 0.875,4.96875 1.1875,1.375 3.5625,1.375 h 1.65625 v 1.15625 h -18.15625 v -1.15625 h 1.59375 q 2.6875,0 3.84375,-1.75 0.65625,-0.96875 0.65625,-4.59375 v -27.375 q 0,-4 -0.875,-4.96875 -1.21875,-1.375 -3.625,-1.375 h -1.59375 v -1.15625 h 15.4375 q 6.75,0 9.9375,1 3.21875,0.96875 5.4375,3.625 2.25,2.625 2.25,6.28125 0,3.90625 -2.5625,6.78125 -2.53125,2.875 -7.875,4.0625 l 8.75,12.15625 q 3,4.1875 5.15625,5.5625 2.15625,1.375 5.625005,1.75 z M 72.796875,96.90539 q 0.59375,0 1.03125,0.03125 0.4375,0 0.71875,0 6.0625,0 9.125,-2.625 3.09375,-2.625 3.09375,-6.6875 0,-3.96875 -2.5,-6.4375 -2.46875,-2.5 -6.5625,-2.5 -1.8125,0 -4.90625,0.59375 z" />
      <path
         id="path819"
         style="font-style:normal;font-variant:normal;font-weight:normal;font-stretch:normal;font-size:64px;font-family:serif;-inkscape-font-specification:serif;fill:#ffa50f;fill-opacity:0.94117647"
         d="m 118.39063,89.21789 q 6.5,0 10.43749,4.9375 3.34375,4.21875 3.34375,9.6875 0,3.84375 -1.84375,7.78125 -1.84375,3.9375 -5.09374,5.9375 -3.21875,2 -7.1875,2 -6.46875,0 -10.28125,-5.15625 -3.21875,-4.34375 -3.21875,-9.75 0,-3.9375 1.9375,-7.8125 1.96875,-3.90625 5.15625,-5.75 3.1875,-1.875 6.75,-1.875 z m -0.96875,2.03125 q -1.65625,0 -3.34375,1 -1.65625,0.96875 -2.6875,3.4375 -1.03125,2.46875 -1.03125,6.34375 0,6.25 2.46875,10.78125 2.5,4.53125 6.5625,4.53125 3.03125,0 5,-2.5 1.96875,-2.5 1.96875,-8.59375 0,-7.625 -3.28125,-12 -2.21875,-3 -5.65625,-3 z" />
      <path
         id="path821"
         style="font-style:normal;font-variant:normal;font-weight:normal;font-stretch:normal;font-size:64px;font-family:serif;-inkscape-font-specification:serif;fill:#ffa50f;fill-opacity:0.94117647"
         d="m 150.39062,89.21789 q 6.5,0 10.4375,4.9375 3.34375,4.21875 3.34375,9.6875 0,3.84375 -1.84375,7.78125 -1.84375,3.9375 -5.09375,5.9375 -3.21875,2 -7.1875,2 -6.46875,0 -10.28125,-5.15625 -3.21875,-4.34375 -3.21875,-9.75 0,-3.9375 1.9375,-7.8125 1.96875,-3.90625 5.15625,-5.75 3.1875,-1.875 6.75,-1.875 z m -0.96875,2.03125 q -1.65625,0 -3.34375,1 -1.65625,0.96875 -2.6875,3.4375 -1.03125,2.46875 -1.03125,6.34375 0,6.25 2.46875,10.78125 2.5,4.53125 6.5625,4.53125 3.03125,0 5,-2.5 1.96875,-2.5 1.96875,-8.59375 0,-7.625 -3.28125,-12 -2.21875,-3 -5.65625,-3 z" />
      <path
         id="path823"
         style="font-style:normal;font-variant:normal;font-weight:normal;font-stretch:normal;font-size:64px;font-family:serif;-inkscape-font-specification:serif;fill:#ffa50f;fill-opacity:0.94117647"
         d="m 176.70312,80.65539 v 9.40625 h 6.6875 v 2.1875 h -6.6875 v 18.5625 q 0,2.78125 0.78125,3.75 0.8125,0.96875 2.0625,0.96875 1.03125,0 2,-0.625 0.96875,-0.65625 1.5,-1.90625 h 1.21875 q -1.09375,3.0625 -3.09375,4.625 -2,1.53125 -4.125,1.53125 -1.4375,0 -2.8125,-0.78125 -1.375,-0.8125 -2.03125,-2.28125 -0.65625,-1.5 -0.65625,-4.59375 v -19.25 h -4.53125 v -1.03125 q 1.71875,-0.6875 3.5,-2.3125 1.8125,-1.65625 3.21875,-3.90625 0.71875,-1.1875 2,-4.34375 z" />
    </g>
    <flowRoot
       transform="matrix(0.26458333,0,0,0.26458333,-7.4083337,229.7958)"
       style="font-style:normal;font-weight:normal;font-size:10.6667px;line-height:1.25;font-family:sans-serif;letter-spacing:0px;word-spacing:0px;fill:#000000;fill-opacity:1;stroke:none"
       id="flowRoot873"
       xml:space="preserve"><flowRegion
         style="font-size:10.6667px"
         id="flowRegion875"><rect
           style="font-size:10.66666698px"
           y="7.4999995"
           x="33.214287"
           height="317.85712"
           width="297.14285"
           id="rect877" /></flowRegion><flowPara
         id="flowPara1157"
         style="font-style:normal;font-variant:normal;font-weight:normal;font-stretch:normal;font-size:10.6667px;font-family:monospace;-inkscape-font-specification:monospace"><flowSpan
   id="flowSpan1135"
   style="fill:#400000;fill-opacity:1">main</flowSpan><flowSpan
   id="flowSpan1027"
   style="fill:#808030;fill-opacity:1">.</flowSpan>c<flowSpan
   id="flowSpan1039"
   style="fill:#800080;fill-opacity:1">:</flowSpan><flowSpan
   id="flowSpan1053"
   style="fill:#008c00;fill-opacity:1">10</flowSpan><flowSpan
   id="flowSpan1045"
   style="fill:#800080;fill-opacity:1">:</flowSpan><flowSpan
   id="flowSpan1055"
   style="fill:#008c00;fill-opacity:1">26</flowSpan><flowSpan
   id="flowSpan1047"
   style="fill:#800080;fill-opacity:1">:</flowSpan> fatal error<flowSpan
   id="flowSpan1049"
   style="fill:#800080;fill-opacity:1">:</flowSpan> contributors<flowSpan
   id="flowSpan1057"
   style="fill:#808030;fill-opacity:1">.</flowSpan>h<flowSpan
   id="flowSpan1051"
   style="fill:#800080;fill-opacity:1">:</flowSpan>             No such file <flowSpan
   id="flowSpan1063"
   style="font-style:normal;font-variant:normal;font-weight:bold;font-stretch:normal;font-family:monospace;-inkscape-font-specification:'monospace Bold';fill:#800000;fill-opacity:1">or</flowSpan> directory</flowPara><flowPara
         id="flowPara1015"
         style="font-style:normal;font-variant:normal;font-weight:normal;font-stretch:normal;font-size:10.6667px;font-family:monospace;-inkscape-font-specification:monospace"> <flowSpan
   id="flowSpan1071"
   style="fill:#004a43;fill-opacity:1">#include</flowSpan> <flowSpan
   id="flowSpan1093"
   style="fill:#800000;fill-opacity:1">&quot;</flowSpan><flowSpan
   id="flowSpan1101"
   style="fill:#40015a;fill-opacity:1">contributors.h</flowSpan><flowSpan
   id="flowSpan1099"
   style="fill:#800000;fill-opacity:1">&quot;</flowSpan></flowPara><flowPara
         id="flowPara1017"
         style="font-style:normal;font-variant:normal;font-weight:normal;font-stretch:normal;font-size:10.6667px;font-family:monospace;-inkscape-font-specification:monospace">                          <flowSpan
   id="flowSpan1103"
   style="fill:#808030;fill-opacity:1">^</flowSpan></flowPara><flowPara
         id="flowPara1019"
         style="font-style:normal;font-variant:normal;font-weight:normal;font-stretch:normal;font-size:10.6667px;font-family:monospace;-inkscape-font-specification:monospace">compilation terminated<flowSpan
   id="flowSpan1105"
   style="fill:#808030;fill-opacity:1">.</flowSpan></flowPara><flowPara
         id="flowPara937"
         style="font-style:normal;font-variant:normal;font-weight:normal;font-stretch:normal;font-size:10.6667px;font-family:monospace;-inkscape-font-specification:monospace" /><flowPara
         id="flowPara939"
         style="font-style:normal;font-variant:normal;font-weight:normal;font-stretch:normal;font-size:10.6667px;font-family:monospace;-inkscape-font-specification:monospace" /><flowPara
         id="flowPara941"
         style="font-style:normal;font-variant:normal;font-weight:normal;font-stretch:normal;font-size:10.6667px;font-family:monospace;-inkscape-font-specification:monospace" /><flowPara
         id="flowPara943"
         style="font-style:normal;font-variant:normal;font-weight:normal;font-stretch:normal;font-size:10.6667px;font-family:monospace;-inkscape-font-specification:monospace" /><flowPara
         id="flowPara881"
         style="font-style:normal;font-variant:normal;font-weight:normal;font-stretch:normal;font-size:10.6667px;font-family:monospace;-inkscape-font-specification:monospace" /><flowPara
         id="flowPara1086"
         style="font-style:normal;font-variant:normal;font-weight:normal;font-stretch:normal;font-size:10.6667px;font-family:monospace;-inkscape-font-specification:monospace" /><flowPara
         id="flowPara1091"
         style="font-style:normal;font-variant:normal;font-weight:normal;font-stretch:normal;font-size:10.6667px;font-family:monospace;-inkscape-font-specification:monospace" /><flowPara
         id="flowPara1097"
         style="font-style:normal;font-variant:normal;font-weight:normal;font-stretch:normal;font-size:10.6667px;font-family:monospace;-inkscape-font-specification:monospace" /><flowPara
         id="flowPara1103"
         style="font-style:normal;font-variant:normal;font-weight:normal;font-stretch:normal;font-size:10.6667px;font-family:monospace;-inkscape-font-specification:monospace" /><flowPara
         id="flowPara1109"
         style="font-style:normal;font-variant:normal;font-weight:normal;font-stretch:normal;font-size:10.6667px;font-family:monospace;-inkscape-font-specification:monospace" /><flowPara
         id="flowPara1114"
         style="font-style:normal;font-variant:normal;font-weight:normal;font-stretch:normal;font-size:10.6667px;font-family:monospace;-inkscape-font-specification:monospace"><flowSpan
           id="flowSpan1116"
           style="fill:#e34adc;fill-opacity:1"></flowSpan></flowPara><flowPara
         id="flowPara1190"
         style="font-style:normal;font-variant:normal;font-weight:normal;font-stretch:normal;font-size:10.6667px;font-family:monospace;-inkscape-font-specification:monospace"><flowSpan
           id="flowSpan1192"
           style="fill:#e34adc;fill-opacity:1"></flowSpan></flowPara><flowPara
         id="flowPara1195"
         style="font-style:normal;font-variant:normal;font-weight:normal;font-stretch:normal;font-size:10.6667px;font-family:monospace;-inkscape-font-specification:monospace"><flowSpan
           id="flowSpan1197"
           style="fill:#e34adc;fill-opacity:1">https:</flowSpan><flowSpan
           id="flowSpan927"
           style="fill:#696969;fill-opacity:1">//proot-me.github.io</flowSpan></flowPara></flowRoot>
    <path
       id="path959"
       d="m 1.7138477,291.69564 43.3598503,0.006"
       style="fill:none;stroke:#000000;stroke-width:0.12585306px;stroke-linecap:butt;stroke-linejoin:miter;stroke-opacity:1" />
    <g
       transform="translate(-1.5768768,-20.493471)"
       id="g1208">
      <text
         xml:space="preserve"
         style="font-style:normal;font-weight:normal;font-size:10.5833px;line-height:1.25;font-family:sans-serif;letter-spacing:0px;word-spacing:0px;fill:#000000;fill-opacity:1;stroke:none;stroke-width:0.264583"
         x="68.307899"
         y="279.32959"
         id="text1133"><tspan
           x="68.307899"
           y="279.32959"
           style="font-style:normal;font-variant:normal;font-weight:normal;font-stretch:normal;font-size:7.05556px;line-height:0px;font-family:monospace;-inkscape-font-specification:monospace;text-align:end;text-anchor:end;stroke-width:0.264583"
           id="tspan1137"><tspan
             dy="0"
             id="tspan1177"
             style="font-style:normal;font-variant:normal;font-weight:normal;font-stretch:normal;font-size:7.05556px;line-height:0px;font-family:monospace;-inkscape-font-specification:monospace;text-align:end;text-anchor:end;stroke-width:0.264583">We</tspan></tspan></text>
      <text
         xml:space="preserve"
         style="font-style:normal;font-weight:normal;font-size:10.5833px;line-height:1.25;font-family:sans-serif;letter-spacing:0px;word-spacing:0px;fill:#000000;fill-opacity:1;stroke:none;stroke-width:0.264583"
         x="73.005287"
         y="294.61179"
         id="text1133-5"><tspan
           x="73.005287"
           y="294.61179"
           style="font-style:normal;font-variant:normal;font-weight:normal;font-stretch:normal;font-size:7.05556px;line-height:0px;font-family:monospace;-inkscape-font-specification:monospace;text-align:end;text-anchor:end;stroke-width:0.264583"
           id="tspan1137-1">You!</tspan></text>
      <text
         xml:space="preserve"
         style="font-style:normal;font-weight:normal;font-size:10.5833px;line-height:1.25;font-family:sans-serif;letter-spacing:0px;word-spacing:0px;fill:#000000;fill-opacity:1;stroke:none;stroke-width:0.264583"
         x="72.30938"
         y="287.01807"
         id="text1133-2"><tspan
           x="72.30938"
           y="287.01807"
           style="font-style:normal;font-variant:normal;font-weight:normal;font-stretch:normal;font-size:7.05556px;line-height:0px;font-family:monospace;-inkscape-font-specification:monospace;text-align:end;text-anchor:end;stroke-width:0.264583"
           id="tspan1137-4">Need</tspan></text>
    </g>
  </g>
</svg>
